<svg width="50" height="50" viewBox="0 0 50 50" fill="none" xmlns="http://www.w3.org/2000/svg">
<path d="M19.5 22V17H12V22H19.5ZM15.75 18.25C16.0815 18.25 16.3996 18.3817 16.6339 18.6161C16.8683 18.8504 17 19.1685 17 19.5C17 19.8315 16.8683 20.1496 16.6339 20.3839C16.3996 20.6183 16.0815 20.75 15.75 20.75C15.4185 20.75 15.1004 20.6183 14.8661 20.3839C14.6317 20.1496 14.5 19.8315 14.5 19.5C14.5 19.1685 14.6317 18.8504 14.8661 18.6161C15.1004 18.3817 15.4185 18.25 15.75 18.25Z" fill="#A8A8A8"/>
<path d="M20.75 22H23.25V21.375C23.25 21.2093 23.1842 21.0502 23.067 20.933C22.9498 20.8159 22.7907 20.75 22.625 20.75H20.75V22Z" fill="#A8A8A8"/>
<path d="M10.7499 16.375C10.7499 16.0298 11.0298 15.75 11.3749 15.75H20.1249C20.2907 15.75 20.4497 15.8158 20.5669 15.933C20.6841 16.0502 20.7499 16.2092 20.7499 16.375V19.5H21.9999V16.375C21.9999 15.8778 21.8024 15.4006 21.4508 15.0491C21.0993 14.6976 20.6221 14.5 20.125 14.5H11.375C10.8778 14.5 10.4006 14.6975 10.0491 15.0491C9.69761 15.4007 9.5 15.8778 9.5 16.375V19.5H10.75L10.7499 16.375Z" fill="#A8A8A8"/>
<path d="M18.875 10.125C18.875 11.851 17.476 13.25 15.75 13.25C14.024 13.25 12.625 11.851 12.625 10.125C12.625 8.399 14.024 7 15.75 7C17.476 7 18.875 8.399 18.875 10.125Z" fill="#A8A8A8"/>
<path d="M29.5 20.75H27.625C27.2799 20.75 27 21.0299 27 21.375V22H29.5V20.75Z" fill="#A8A8A8"/>
<path d="M39.5 22H42V21.375C42 21.2093 41.9342 21.0502 41.817 20.933C41.6998 20.8159 41.5407 20.75 41.375 20.75H39.5V22Z" fill="#A8A8A8"/>
<path d="M37.625 10.125C37.625 11.851 36.226 13.25 34.5 13.25C32.774 13.25 31.375 11.851 31.375 10.125C31.375 8.399 32.774 7 34.5 7C36.226 7 37.625 8.399 37.625 10.125Z" fill="#A8A8A8"/>
<path d="M29.4999 16.375C29.4999 16.0298 29.7798 15.75 30.1249 15.75H38.8749C39.0407 15.75 39.1997 15.8158 39.3169 15.933C39.4341 16.0502 39.4999 16.2092 39.4999 16.375V19.5H40.7499V16.375C40.7499 15.8778 40.5524 15.4006 40.2008 15.0491C39.8493 14.6976 39.3721 14.5 38.875 14.5H30.125C29.6278 14.5 29.1506 14.6975 28.7991 15.0491C28.4476 15.4007 28.25 15.8778 28.25 16.375V19.5H29.5L29.4999 16.375Z" fill="#A8A8A8"/>
<path d="M38.25 22V17H30.75V22H38.25ZM34.5 18.25C34.8315 18.25 35.1496 18.3817 35.3839 18.6161C35.6183 18.8504 35.75 19.1685 35.75 19.5C35.75 19.8315 35.6183 20.1496 35.3839 20.3839C35.1496 20.6183 34.8315 20.75 34.5 20.75C34.1685 20.75 33.8504 20.6183 33.6161 20.3839C33.3817 20.1496 33.25 19.8315 33.25 19.5C33.25 19.1685 33.3817 18.8504 33.6161 18.6161C33.8504 18.3817 34.1685 18.25 34.5 18.25Z" fill="#A8A8A8"/>
<path d="M10.75 20.75H8.875C8.52986 20.75 8.25 21.0299 8.25 21.375V22H10.75V20.75Z" fill="#A8A8A8"/>
<path d="M30.125 40.75H32.625V40.125C32.625 39.9593 32.5592 39.8002 32.442 39.683C32.3248 39.5659 32.1657 39.5 32 39.5H30.125V40.75Z" fill="#A8A8A8"/>
<path d="M28.875 40.75V35.75H21.375V40.75H28.875ZM25.125 37C25.4565 37 25.7746 37.1317 26.0089 37.3661C26.2433 37.6004 26.375 37.9185 26.375 38.25C26.375 38.5815 26.2433 38.8996 26.0089 39.1339C25.7746 39.3683 25.4565 39.5 25.125 39.5C24.7935 39.5 24.4754 39.3683 24.2411 39.1339C24.0067 38.8996 23.875 38.5815 23.875 38.25C23.875 37.9185 24.0067 37.6004 24.2411 37.3661C24.4754 37.1317 24.7935 37 25.125 37Z" fill="#A8A8A8"/>
<path d="M17.625 40.125V40.75H20.125V39.5H18.25C17.9049 39.5 17.625 39.7799 17.625 40.125Z" fill="#A8A8A8"/>
<path d="M7 42H43.25V43.25H7V42Z" fill="#A8A8A8"/>
<path d="M28.25 28.875C28.25 30.601 26.851 32 25.125 32C23.399 32 22 30.601 22 28.875C22 27.149 23.399 25.75 25.125 25.75C26.851 25.75 28.25 27.149 28.25 28.875Z" fill="#A8A8A8"/>
<path d="M7 23.25V25.75H22.0693C22.8846 24.9489 23.9816 24.5 25.1248 24.5C26.2679 24.5 27.365 24.9489 28.1803 25.75H43.2496V23.25H7Z" fill="#A8A8A8"/>
<path d="M18.875 35.125V38.25H20.125V35.125C20.125 34.7798 20.4049 34.5 20.75 34.5H29.5C29.6657 34.5 29.8248 34.5658 29.942 34.683C30.0592 34.8002 30.125 34.9592 30.125 35.125V38.25H31.375V35.125C31.375 34.6278 31.1775 34.1506 30.8259 33.7991C30.4743 33.4476 29.9972 33.25 29.5 33.25H20.75C20.2528 33.25 19.7757 33.4475 19.4242 33.7991C19.0727 34.1507 18.8751 34.6278 18.8751 35.125H18.875Z" fill="#A8A8A8"/>
</svg>
