<svg width="50" height="50" viewBox="0 0 50 50" fill="none" xmlns="http://www.w3.org/2000/svg">
<path d="M31.6001 6.60513C31.5734 6.61908 31.584 6.58588 31.522 6.7346C31.4598 6.88303 31.3515 7.19247 31.0923 7.50131C30.8328 7.80991 30.4394 8.1012 29.8423 8.35453C29.2452 8.60788 28.7636 8.6913 28.3616 8.66312C27.9596 8.63522 27.6621 8.49571 27.512 8.43739C27.4707 8.41256 27.3831 8.38912 27.3644 8.40084C27.3066 8.41981 27.0851 8.54537 26.7101 8.92679C26.3348 9.30849 26.2112 9.53812 26.1925 9.59588C26.185 9.62434 26.1811 9.6182 26.2304 9.73873C26.2915 9.88773 26.4347 10.1807 26.4696 10.5822C26.5044 10.9837 26.4319 11.4664 26.1889 12.0677C25.9456 12.6693 25.6618 13.0727 25.3574 13.3372C25.0532 13.6017 24.7444 13.7108 24.5968 13.7756C24.5404 13.8082 24.491 13.816 24.4724 13.8537C24.445 13.9078 24.3747 14.1584 24.3797 14.6936C24.3836 15.1832 24.4425 15.4341 24.4763 15.5103C24.4905 15.5496 24.4958 15.5535 24.5508 15.5797C24.6986 15.6501 25.2466 15.7929 25.697 16.3574C25.7871 16.279 25.8605 16.2039 25.9205 16.1328C26.1348 15.8775 26.2084 15.654 26.3401 15.3393C26.4718 15.0248 26.6763 14.6069 27.1984 14.3334C27.4651 14.1936 27.7796 14.1055 28.1652 14.0513C28.4456 11.911 30.2763 10.2489 32.5048 10.2489C34.9233 10.2489 36.8773 12.2151 36.8773 14.6239C36.8773 15.5497 36.5862 16.4333 36.0605 17.1666C36.1822 17.1228 36.2952 17.0729 36.4389 17.014C36.8161 16.8594 37.2372 16.7464 37.7536 16.9077C38.0452 16.9987 38.358 17.1761 38.7142 17.4535C38.7474 17.3561 38.7748 17.2849 38.8192 17.175C39.068 16.5595 39.3401 16.1761 39.6442 15.9116C39.9484 15.6471 40.2586 15.538 40.406 15.4732C40.5524 15.4085 40.5229 15.4077 40.5499 15.3535C40.5675 15.3189 40.6317 15.0904 40.6269 14.5552C40.6225 14.0201 40.5597 13.8072 40.5318 13.7533C40.5036 13.6995 40.5424 13.7031 40.3939 13.6412C40.2455 13.5789 39.9325 13.4721 39.6236 13.2126C39.315 12.9534 39.0273 12.5586 38.7739 11.9614C38.5206 11.3643 38.4369 10.883 38.4651 10.4807C38.4933 10.0787 38.6325 9.78234 38.6908 9.63222C38.7491 9.48211 38.7304 9.5128 38.7117 9.45532C38.6925 9.39784 38.5795 9.20421 38.1978 8.82921C37.8161 8.45393 37.6099 8.34149 37.5521 8.32251C37.5039 8.29712 37.4729 8.31358 37.385 8.34929C37.236 8.4104 36.943 8.55493 36.5415 8.58981C36.1397 8.62469 35.6573 8.55102 35.056 8.30772C34.4544 8.06498 34.0557 7.78233 33.7912 7.47794C33.5267 7.17381 33.4129 6.86857 33.3481 6.72122C33.2842 6.57279 33.2971 6.6085 33.27 6.59176C33.2176 6.56135 32.9703 6.49549 32.4344 6.50024C31.8998 6.50499 31.6539 6.57725 31.6001 6.60516L31.6001 6.60513ZM32.5047 11.4988C30.9916 11.4988 29.7388 12.5661 29.4444 13.9818C30.2856 13.988 30.8683 14.0817 31.2963 14.2969C31.8236 14.5619 32.0357 14.9771 32.1727 15.2894C32.3097 15.6016 32.387 15.8262 32.606 16.0779C32.8251 16.3295 33.204 16.6286 33.9855 16.9445C34.14 17.0067 34.2793 17.0567 34.4115 17.0996C35.1779 16.5101 35.6286 15.5971 35.6286 14.6242C35.6286 12.8909 34.2173 11.4992 32.5047 11.4992L32.5047 11.4988ZM12.8133 13.3741C10.9196 13.3741 9.37579 14.9059 9.37579 16.8116C9.37579 18.7173 10.9196 20.248 12.8133 20.248C14.707 20.248 16.2496 18.7176 16.2496 16.8116C16.2496 14.9059 14.7069 13.3741 12.8133 13.3741ZM27.7804 15.4408C27.6083 15.531 27.5664 15.6504 27.4936 15.8239C27.3884 16.0756 27.2408 16.502 26.8761 16.9361C26.5112 17.3702 25.9464 17.7896 25.0439 18.1727C24.1412 18.5555 23.4465 18.6735 22.8806 18.6339C22.3151 18.5945 21.9068 18.4009 21.6527 18.3018C21.4764 18.234 21.3625 18.1796 21.1778 18.241C20.9931 18.3021 20.6089 18.5418 20.0012 19.1601C19.4501 19.7206 19.2046 20.0929 19.1248 20.294C19.045 20.4952 19.0918 20.6012 19.1248 20.6955C19.2846 21.1548 19.7651 21.8311 19.4105 23.2882L19.1833 24.1431L21.3391 27.1705C21.911 23.2466 25.2961 20.2296 29.3762 20.2296C33.8731 20.2296 37.5012 23.875 37.5012 28.3546C37.5012 32.8342 33.8804 36.4796 29.3762 36.4796C26.8776 36.4796 24.5216 35.3284 22.9858 33.3741H19.4323C19.6125 33.9545 19.6661 34.4385 19.6374 34.8512C19.598 35.4171 19.4044 35.829 19.3053 36.0828C19.2063 36.337 19.1979 36.4126 19.2442 36.5527C19.3162 36.7698 19.545 37.1205 20.1633 37.7282C20.7816 38.3362 21.1334 38.558 21.3536 38.6266C21.4833 38.6673 21.5712 38.6629 21.8234 38.5594C22.076 38.4558 22.4816 38.258 23.0467 38.2089C23.6117 38.1598 24.3103 38.2614 25.2194 38.6288C26.1284 38.9963 26.7015 39.4056 27.0737 39.8336C27.4459 40.2616 27.5963 40.6899 27.706 40.9396C27.8156 41.1893 27.8734 41.2488 28.0015 41.3132C28.2124 41.419 28.615 41.5035 29.4822 41.4963C30.3494 41.4887 30.7869 41.3791 30.9593 41.2887C31.0746 41.2284 31.1396 41.157 31.245 40.9053C31.3505 40.6536 31.4942 40.2239 31.8592 39.7895C32.2238 39.3554 32.7874 38.936 33.6901 38.553C34.5927 38.1701 35.2886 38.0557 35.8544 38.0951C36.4203 38.1344 36.8322 38.3295 37.086 38.4282C37.3402 38.5273 37.3999 38.5298 37.5559 38.4879C37.7743 38.4157 38.1248 38.1883 38.7325 37.5699C39.3405 36.9516 39.574 36.5655 39.6321 36.3797C39.6902 36.1938 39.6167 36.0443 39.5626 35.9036C39.4594 35.6511 39.2565 35.2468 39.2074 34.6819C39.1583 34.1168 39.2649 33.4218 39.6321 32.5128C39.9995 31.6037 40.4089 31.0321 40.8369 30.6599C41.2649 30.2877 41.6943 30.1334 41.944 30.024C42.0919 29.959 42.2303 29.9074 42.3176 29.7335C42.405 29.5597 42.5065 29.1202 42.4995 28.2528C42.4995 27.3945 42.3846 26.9495 42.2945 26.7771C42.23 26.654 42.1628 26.5955 41.9111 26.4903C41.66 26.3851 41.23 26.2425 40.7956 25.8778C40.3614 25.5129 39.9421 24.9431 39.559 24.0405C39.1762 23.1378 39.0618 22.4434 39.1014 21.8775C39.1408 21.3117 39.3358 20.9035 39.4346 20.6496C39.5336 20.3957 39.5361 20.331 39.4943 20.1747C39.4343 19.9939 39.2326 19.6527 38.5922 19.0152C37.9575 18.3896 37.5719 18.1614 37.3863 18.103C37.2005 18.045 37.0844 18.1013 36.9103 18.1728C36.6578 18.276 36.2532 18.4738 35.6882 18.5229C35.1235 18.572 34.4234 18.4705 33.5144 18.103C32.6053 17.7355 32.0369 17.3226 31.665 16.8946C31.2928 16.4666 31.1374 16.0408 31.0277 15.7911C30.9181 15.5414 30.867 15.4828 30.7373 15.4175C30.5205 15.3087 30.1234 15.2263 29.2566 15.2333C28.3896 15.2406 27.9809 15.336 27.7808 15.4406L27.7804 15.4408ZM22.5022 28.353C22.5022 28.36 22.5033 28.3655 22.5033 28.3725H24.3747C24.8317 28.3725 25.2561 28.5037 25.6258 28.7179L25.6272 27.1225C25.6278 26.0739 26.4754 25.2487 27.5037 25.2489L32.5048 25.2501C33.5475 25.2503 34.3773 26.0946 34.3773 27.1226V30.8726C34.3773 31.9178 33.5327 32.7476 32.5048 32.7476H27.5034C27.0759 32.7476 26.6925 32.6122 26.3792 32.3754C25.9772 32.9136 25.3619 33.2771 24.663 33.3581C25.9269 34.5531 27.6039 35.2319 29.3762 35.2319C33.1633 35.2319 36.2512 32.1574 36.2512 28.3533C36.2512 24.5491 33.156 21.4811 29.3762 21.4808C25.5963 21.4802 22.5023 24.5489 22.5023 28.353L22.5022 28.353ZM11.2536 21.4989C9.12836 21.4989 7.5 23.0299 7.5 25.2171V34.5993C7.5 37.7499 8.75 42.75 8.75 43.375C8.75 43.7213 9.02874 44 9.375 44H13.125C13.4713 44 13.75 43.7213 13.75 43.375C13.75 42.75 15.6275 36.5 15.6275 34L15.6272 31.1118L14.5569 30.0326C13.9693 29.4392 14.8605 28.5578 15.4479 29.1515L18.3862 32.1228H24.3751C25.0785 32.1228 25.6251 31.5589 25.6251 30.8728C25.6251 30.1867 25.0785 29.6228 24.3751 29.6228L21.8798 29.6225C21.6764 29.6233 21.485 29.526 21.3672 29.3599L17.8259 24.3954C17.0991 23.3794 16.6142 22.6761 15.9886 22.219C15.3633 21.762 14.5508 21.4989 13.0397 21.4989L11.2536 21.4989ZM27.5036 26.5001C27.1465 26.5001 26.8775 26.7777 26.8775 27.1225L26.8764 30.8725C26.8761 31.2297 27.1591 31.4975 27.5039 31.4975H32.5051C32.8622 31.4975 33.1276 31.2076 33.1276 30.8725V27.1225C33.1276 26.7827 32.8572 26.5001 32.5051 26.5001H31.8776V28.9989C31.8776 29.4635 31.3887 29.7656 30.973 29.5581L30.0037 29.0734L29.0308 29.5581C28.6153 29.7659 28.1262 29.4635 28.1262 28.9989L28.1265 26.5001H27.5036ZM29.3761 26.5001V27.9906L29.7227 27.8148C29.8985 27.7272 30.1049 27.7272 30.2804 27.8148L30.6259 27.9906L30.6264 26.5001H29.3761Z" fill="#A8A8A8"/>
</svg>
