<svg width="50" height="50" viewBox="0 0 50 50" fill="none" xmlns="http://www.w3.org/2000/svg">
<path d="M28.9782 11.0575C28.9782 13.5745 26.9381 15.6147 24.421 15.6147C21.904 15.6147 19.8635 13.5746 19.8635 11.0575C19.8635 8.54043 21.904 6.5 24.421 6.5C26.938 6.5 28.9782 8.54043 28.9782 11.0575Z" fill="#A8A8A8"/>
<path d="M24.4212 16.2227C20.956 16.2227 18.0624 18.666 17.366 21.9235H31.476C30.7795 18.666 27.8858 16.2227 24.421 16.2227H24.4212Z" fill="#A8A8A8"/>
<path d="M34.2305 22.6234C34.2305 22.6083 34.2327 22.5936 34.2327 22.5785V16.886C34.2327 15.9189 33.8371 15.0478 33.2079 14.4312C33.2899 14.0905 33.1183 13.7303 32.7849 13.588L30.4905 12.6098C30.1183 12.4513 29.6881 12.6246 29.5299 12.9959C29.3714 13.3676 29.5441 13.7979 29.9163 13.9566L32.2107 14.9348C32.4241 15.026 32.656 15.0045 32.8454 14.9019C33.3354 15.4077 33.6404 16.1097 33.6404 16.8857V22.5779C33.6404 22.5932 33.6381 22.6077 33.6379 22.6228H14.5V25.0022H16.7394V43.4772H33.1144L33.1147 25.0022H35.4939V22.623L34.2305 22.6234Z" fill="#A8A8A8"/>
</svg>
