<svg width="50" height="51" viewBox="0 0 50 51" fill="none" xmlns="http://www.w3.org/2000/svg">
<path d="M33.9618 16.3862H36.5828L24.8422 9.25L13.1016 16.3862H15.7226V19.4152L8 19.4155V42.2395H21.6707V32.4611H28.0135V42.2395H41.6841V19.4155H33.9616L33.9618 16.3862ZM17.928 37.8406H11.5852V32.4613H17.928V37.8406ZM17.928 28.8649H11.5852V23.4856H17.928V28.8649ZM28.0941 28.8649H21.7514V23.4856H28.0941V28.8649ZM38.0994 37.8406H31.7566V32.4613H38.0994V37.8406ZM38.0994 23.4856V28.8649H31.7566V23.4856H38.0994ZM24.8423 20.6989C23.7547 20.6989 22.7892 20.1952 22.1689 19.4154C21.7216 18.8528 21.4526 18.1474 21.4526 17.3795C21.4526 17.0334 21.5069 16.7 21.6071 16.3865C22.0383 15.0381 23.3235 14.0594 24.8422 14.0594C26.3609 14.0594 27.6462 15.038 28.0773 16.3862C28.1775 16.6998 28.2318 17.0332 28.2318 17.3792C28.2318 18.1475 27.9628 18.8528 27.5155 19.4151C26.8952 20.1952 25.9298 20.6989 24.8422 20.6989H24.8423Z" fill="#A8A8A8"/>
</svg>
