<svg width="50" height="51" viewBox="0 0 50 51" fill="none" xmlns="http://www.w3.org/2000/svg">
<path d="M20.1999 37.7001C21.1546 37.7001 22.0704 38.0793 22.7454 38.7546C23.4206 39.4298 23.7998 40.3453 23.7998 41.3001C23.7998 42.2549 23.4206 43.1706 22.7454 43.8459C22.0704 44.5208 21.1546 44.9003 20.1999 44.9003C19.2451 44.9003 18.3293 44.5208 17.6541 43.8459C16.9791 43.1706 16.5996 42.2549 16.5996 41.3001C16.5996 40.3453 16.9791 39.4298 17.6541 38.7546C18.3293 38.0794 19.245 37.7001 20.1999 37.7001ZM28.5999 41.3H28.5996C28.5996 42.2548 28.979 43.1706 29.654 43.8458C30.3292 44.5207 31.2449 44.9002 32.1998 44.9002C33.1546 44.9002 34.0704 44.5208 34.7453 43.8458C35.4205 43.1706 35.7997 42.2549 35.7997 41.3C35.7997 40.3452 35.4205 39.4297 34.7453 38.7545C34.0704 38.0793 33.1546 37.7001 32.1998 37.7001C31.245 37.7001 30.3292 38.0793 29.654 38.7545C28.9791 39.4297 28.5996 40.3452 28.5996 41.3H28.5999ZM42.6677 12.5C42.2408 11.7606 41.4534 11.3039 40.5996 11.2999H16.4961L14.6479 6.5H7V11.2999H11.3521L17.3521 26.8999L32.8 26.9002C33.4431 26.9002 34.0374 27.2431 34.3589 27.8001C34.6803 28.357 34.6803 29.0434 34.3589 29.6003C34.0374 30.1572 33.4431 30.5001 32.8 30.5001H13V35.3001H32.8C34.5355 35.302 36.2015 34.6195 37.4367 33.4008C38.6722 32.1821 39.377 30.5252 39.3985 28.7903C39.4203 27.0551 38.7568 25.3812 37.5519 24.1321L42.7001 14.8678C43.1066 14.1279 43.0946 13.2286 42.668 12.4998L42.6677 12.5Z" fill="#A8A8A8"/>
</svg>
