<svg width="50" height="50" viewBox="0 0 50 50" fill="none" xmlns="http://www.w3.org/2000/svg">
<path fill-rule="evenodd" clip-rule="evenodd" d="M12.4114 7.54964C12.4114 6.43414 12.4114 5 14.0051 5H35.8379C37.4316 5 37.4316 6.43414 37.4316 7.54964C38.3879 7.54964 39.344 7.86828 39.344 8.98379V12.0117C39.344 12.8086 38.7064 13.4459 37.9099 13.4459H11.9341C11.1373 13.4459 10.5 12.8083 10.5 12.0117V8.98379C10.5 7.86829 11.4562 7.54964 12.4124 7.54964H12.4114Z" fill="#A8A8A8"/>
<path fill-rule="evenodd" clip-rule="evenodd" d="M35.6785 27.6293L34.2444 41.9721C34.085 43.7252 32.8102 45.0001 31.0571 45.0001H18.9457C17.1927 45.0001 15.9178 43.7252 15.7585 41.9721L14.1648 27.6293H19.583C20.061 29.5416 22.2923 31.1351 25.0012 31.1351C27.5509 31.1351 29.7822 29.5414 30.2602 27.6293H35.6785Z" fill="#A8A8A8"/>
<path fill-rule="evenodd" clip-rule="evenodd" d="M36.9534 14.4021L35.8379 26.0357H30.2604C29.7824 24.1233 27.5511 22.5298 25.0014 22.5298C22.2921 22.5298 20.0611 24.1235 19.5832 26.0357H14.0056L12.8901 14.4021H36.9537H36.9534Z" fill="#A8A8A8"/>
<path fill-rule="evenodd" clip-rule="evenodd" d="M28.9849 26.6736C28.8256 30.339 22.2916 31.2952 21.0171 27.9484C24.045 28.586 24.6825 27.7891 25.1605 26.9922C25.7981 26.3547 26.276 25.3985 28.9853 26.6736L28.9849 26.6736Z" fill="#A8A8A8"/>
<path fill-rule="evenodd" clip-rule="evenodd" d="M28.8256 26.0357C26.1163 24.7609 25.479 25.7171 24.8415 26.5137C24.2039 27.1512 23.8853 27.9478 20.8574 27.1512C20.8574 23.1672 28.0289 22.2109 28.8253 26.0357L28.8256 26.0357Z" fill="#A8A8A8"/>
</svg>
