<svg width="50" height="50" viewBox="0 0 50 50" fill="none" xmlns="http://www.w3.org/2000/svg">
<path d="M42.029 7.62085H33.3019C32.6699 7.62085 32.1562 8.13815 32.1562 8.77571C32.1562 9.41326 32.6699 9.93056 33.3019 9.93056H34.1275V39.5799H34.1203V41.1401C34.1203 43.0358 35.6516 44.5782 37.5352 44.5782C39.4172 44.5782 40.9484 43.0361 40.9484 41.1401V9.93085H42.0285C42.6605 9.93085 43.1741 9.41355 43.1741 8.77599C43.1739 8.13844 42.6607 7.62114 42.0288 7.62114L42.029 7.62085ZM36.9367 9.93056H38.658V25.2284H36.4216L36.4213 9.93056H36.9367Z" fill="#A8A8A8"/>
<path d="M29.2755 36.6191V36.6043C29.9083 36.6043 30.4169 36.0931 30.4256 35.4592H30.4284V12.9235C30.4284 12.2832 29.9134 11.7631 29.2755 11.7631H24.9139V6.16066C24.9139 5.76696 24.7164 5.40059 24.3874 5.1858C24.0587 4.97179 23.6458 4.9411 23.2895 5.10181L7.68164 12.1545C7.35436 12.3024 7.14537 12.5878 7.05692 12.9092L7 12.9095V35.4452C7 35.4528 7.00084 35.4592 7.00084 35.4656C7.00084 35.4703 7.00167 35.474 7.00167 35.4784C7.01842 38.5532 9.45482 41.0549 12.4852 41.1651V44.83L14.7894 42.0479L16.9895 44.83V41.1757H29.2759C29.9134 41.1757 30.4288 40.6556 30.4288 40.0153C30.4288 39.375 29.9138 38.856 29.2759 38.856V38.8552C28.6634 38.8552 28.1668 38.3535 28.1668 37.736C28.1665 37.1205 28.6635 36.6197 29.2759 36.6197L29.2755 36.6191ZM9.50693 36.6043H12.4854V38.8392C11.1124 38.7544 9.95722 37.8534 9.50693 36.6043ZM26.0634 38.8554H16.9891V36.6043H26.0676C25.9432 36.9612 25.862 37.337 25.862 37.7354C25.862 38.13 25.941 38.503 26.0635 38.8554H26.0634ZM28.1242 34.2849H13.5342L24.2321 29.4509C24.647 29.2636 24.9137 28.8496 24.9137 28.3926V14.0833H28.1241V34.2847L28.1242 34.2849Z" fill="#A8A8A8"/>
</svg>
